<?xml version="1.0" standalone="no"?>
<!DOCTYPE svg PUBLIC "-//W3C//DTD SVG 20010904//EN"
 "http://www.w3.org/TR/2001/REC-SVG-20010904/DTD/svg10.dtd">
<svg version="1.0" xmlns="http://www.w3.org/2000/svg"
 width="16.000000pt" height="16.000000pt" viewBox="0 0 16.000000 16.000000"
 preserveAspectRatio="xMidYMid meet">
<metadata>
Created by potrace 1.11, written by Peter Selinger 2001-2013
</metadata>
<g transform="translate(0.000000,16.000000) scale(0.003077,-0.003077)"
fill="#000000" stroke="none">
<path d="M3865 4604 c-141 -7 -442 -36 -525 -50 -97 -17 -352 -85 -452 -121
-250 -89 -449 -293 -575 -588 l-38 -90 0 -220 c0 -173 4 -238 18 -305 46 -221
130 -422 234 -568 31 -42 129 -212 218 -377 89 -165 177 -327 195 -360 18 -33
53 -95 77 -138 103 -179 110 -330 19 -387 -18 -10 -75 -27 -127 -37 -108 -19
-128 -19 -1741 -8 l-1007 7 -6 -24 c-5 -24 -102 -618 -130 -793 -8 -55 -18
-112 -21 -128 l-6 -28 1539 4 c1701 3 1591 -1 1867 68 435 109 729 308 870
586 57 114 106 382 106 579 -1 190 -36 343 -105 454 -78 125 -112 182 -335
550 -455 755 -480 798 -489 845 -13 68 1 114 45 152 21 18 53 38 73 44 34 10
986 33 1001 24 3 -2 64 -5 135 -6 l129 -1 17 63 c9 35 52 195 94 354 42 160
88 328 101 374 13 47 22 87 19 89 -19 20 -964 47 -1200 36z"/>
</g>
</svg>
